<svg xmlns="http://www.w3.org/2000/svg" xmlns:xlink="http://www.w3.org/1999/xlink" width="90" zoomAndPan="magnify" viewBox="0 0 67.5 99.749997" height="133" preserveAspectRatio="xMidYMid meet" version="1.0"><defs><clipPath id="4777001814"><path d="M 0 0.242188 L 66.257812 0.242188 L 66.257812 99 L 0 99 Z M 0 0.242188 " clip-rule="nonzero"/></clipPath></defs><g clip-path="url(#4777001814)"><path fill="#ff5f00" d="M 34.792969 43.929688 C 34.792969 42.660156 35.082031 41.15625 33.175781 41.15625 C 31.328125 41.15625 31.558594 42.542969 31.558594 43.929688 Z M 56.929688 98.953125 L 9.480469 98.953125 C 4.277344 98.953125 0 94.675781 0 89.417969 L 0 9.828125 C 0 4.570312 4.277344 0.292969 9.480469 0.292969 L 56.929688 0.292969 C 62.132812 0.292969 66.410156 4.570312 66.410156 9.828125 L 66.410156 89.417969 C 66.410156 94.675781 62.132812 98.953125 56.929688 98.953125 Z M 9.480469 4.914062 C 6.820312 4.914062 4.625 7.113281 4.625 9.828125 L 4.625 16.648438 L 61.785156 16.648438 L 61.785156 9.828125 C 61.785156 7.113281 59.589844 4.914062 56.929688 4.914062 Z M 4.625 21.273438 L 4.625 77.972656 L 61.785156 77.972656 L 61.785156 21.273438 Z M 4.625 82.597656 L 4.625 89.417969 C 4.625 92.132812 6.820312 94.328125 9.480469 94.328125 L 56.929688 94.328125 C 59.589844 94.328125 61.785156 92.132812 61.785156 89.417969 L 61.785156 82.597656 Z M 39.417969 13.125 L 26.933594 13.125 C 23.929688 13.125 23.929688 8.5 26.933594 8.5 L 39.417969 8.5 C 42.480469 8.5 42.480469 13.125 39.417969 13.125 Z M 36.761719 90.746094 L 29.652344 90.746094 C 26.644531 90.746094 26.644531 86.121094 29.652344 86.121094 L 36.761719 86.121094 C 39.765625 86.121094 39.765625 90.746094 36.761719 90.746094 Z M 33.175781 74.390625 C 33.003906 74.390625 32.773438 74.390625 32.597656 74.332031 C 13.003906 69.128906 12.136719 50.460938 12.136719 50.171875 L 12.136719 30.289062 C 12.136719 28.496094 14.046875 27.398438 15.605469 28.265625 C 21.617188 31.792969 29.304688 27.339844 31.730469 25.320312 C 32.597656 24.683594 33.8125 24.683594 34.621094 25.375 C 36.816406 27.050781 44.5625 31.851562 50.804688 28.265625 C 52.367188 27.398438 54.273438 28.496094 54.273438 30.289062 L 54.273438 50.171875 C 54.273438 50.402344 53.40625 69.128906 33.8125 74.332031 C 33.582031 74.390625 33.40625 74.390625 33.175781 74.390625 Z M 16.761719 50.113281 C 16.820312 51.097656 17.800781 65.257812 33.175781 69.707031 C 48.550781 65.257812 49.589844 51.15625 49.648438 50.113281 L 49.648438 33.699219 C 43.292969 35.433594 36.933594 32.429688 33.175781 30 C 29.363281 32.542969 23.003906 35.375 16.761719 33.699219 Z M 26.933594 43.929688 L 26.933594 42.601562 C 26.933594 34.566406 39.417969 34.566406 39.417969 42.601562 L 39.417969 43.929688 L 40.921875 43.929688 C 42.191406 43.929688 43.234375 44.96875 43.234375 46.242188 L 43.234375 58.265625 C 43.234375 59.535156 42.191406 60.574219 40.921875 60.574219 L 25.488281 60.574219 C 24.21875 60.574219 23.175781 59.535156 23.175781 58.265625 L 23.175781 46.242188 C 23.175781 44.96875 24.21875 43.929688 25.488281 43.929688 Z M 27.800781 55.953125 L 38.609375 55.953125 L 38.609375 48.554688 L 27.800781 48.554688 Z M 27.800781 55.953125 " fill-opacity="1" fill-rule="evenodd"/></g><path stroke-linecap="butt" transform="matrix(0.744485, 0.000000000000010013, -0.000000000000010013, 0.744485, -0.000000000000064801, 79.533554)" fill="none" stroke-linejoin="miter" d="M 0.000000000000113958 2.001226 L 8.452778 2.001226 " stroke="#ff5f00" stroke-width="4" stroke-opacity="1" stroke-miterlimit="4"/></svg>