<svg xmlns="http://www.w3.org/2000/svg" xmlns:xlink="http://www.w3.org/1999/xlink" width="144" zoomAndPan="magnify" viewBox="0 0 108 107.999999" height="144" preserveAspectRatio="xMidYMid meet" version="1.0"><defs><clipPath id="72416a0279"><path d="M 32.175781 14.707031 L 88 14.707031 L 88 92.691406 L 32.175781 92.691406 Z M 32.175781 14.707031 " clip-rule="nonzero"/></clipPath><clipPath id="1587028a70"><path d="M 0 0 L 107.472656 0 L 107.472656 107.472656 L 0 107.472656 Z M 0 0 " clip-rule="nonzero"/></clipPath></defs><path fill="#ff5f00" d="M 50.289062 23.066406 L 58.648438 23.066406 C 59.417969 23.066406 60.039062 22.445312 60.039062 21.675781 C 60.039062 20.90625 59.417969 20.28125 58.648438 20.28125 L 50.289062 20.28125 C 49.519531 20.28125 48.894531 20.90625 48.894531 21.675781 C 48.894531 22.445312 49.519531 23.066406 50.289062 23.066406 " fill-opacity="1" fill-rule="nonzero"/><path fill="#ff5f00" d="M 55.859375 85.757812 L 53.074219 85.757812 C 52.304688 85.757812 51.679688 85.132812 51.679688 84.367188 C 51.679688 83.597656 52.304688 82.972656 53.074219 82.972656 L 55.859375 82.972656 C 56.628906 82.972656 57.253906 83.597656 57.253906 84.367188 C 57.253906 85.132812 56.628906 85.757812 55.859375 85.757812 Z M 55.859375 80.1875 L 53.074219 80.1875 C 50.769531 80.1875 48.894531 82.0625 48.894531 84.367188 C 48.894531 86.671875 50.769531 88.546875 53.074219 88.546875 L 55.859375 88.546875 C 58.164062 88.546875 60.039062 86.671875 60.039062 84.367188 C 60.039062 82.0625 58.164062 80.1875 55.859375 80.1875 " fill-opacity="1" fill-rule="nonzero"/><g clip-path="url(#72416a0279)"><path fill="#ff5f00" d="M 83.273438 59.289062 L 64.667969 59.289062 C 63.652344 59.289062 62.824219 58.460938 62.824219 57.445312 C 62.824219 57.09375 62.925781 56.753906 63.113281 56.457031 C 63.136719 56.421875 63.15625 56.382812 63.175781 56.347656 L 70.894531 41.441406 C 71.578125 40.40625 72.726562 39.785156 73.972656 39.785156 C 74.25 39.785156 74.523438 39.820312 74.789062 39.878906 C 74.90625 39.933594 75.03125 39.96875 75.164062 39.988281 C 75.925781 40.246094 76.589844 40.75 77.046875 41.441406 L 84.765625 56.347656 C 84.785156 56.382812 84.804688 56.421875 84.828125 56.457031 C 85.015625 56.753906 85.117188 57.09375 85.117188 57.445312 C 85.117188 58.460938 84.289062 59.289062 83.273438 59.289062 Z M 73.972656 76.007812 L 34.964844 76.007812 L 34.964844 28.640625 L 73.972656 28.640625 L 73.972656 37 C 71.746094 37 69.707031 38.117188 68.511719 39.996094 C 68.492188 40.03125 68.46875 40.066406 68.453125 40.101562 L 60.726562 55.015625 C 60.277344 55.746094 60.039062 56.585938 60.039062 57.445312 C 60.039062 60 62.117188 62.074219 64.667969 62.074219 L 73.972656 62.074219 Z M 69.792969 89.9375 L 39.144531 89.9375 C 36.839844 89.9375 34.964844 88.0625 34.964844 85.757812 L 34.964844 78.792969 L 73.972656 78.792969 L 73.972656 85.757812 C 73.972656 88.0625 72.097656 89.9375 69.792969 89.9375 Z M 39.144531 17.496094 L 69.792969 17.496094 C 72.097656 17.496094 73.972656 19.371094 73.972656 21.675781 L 73.972656 25.855469 L 34.964844 25.855469 L 34.964844 21.675781 C 34.964844 19.371094 36.839844 17.496094 39.144531 17.496094 Z M 87.214844 55.015625 L 79.492188 40.101562 C 79.472656 40.066406 79.449219 40.03125 79.429688 39.996094 C 78.761719 38.949219 77.835938 38.140625 76.757812 37.625 L 76.757812 21.675781 C 76.757812 17.835938 73.632812 14.710938 69.792969 14.710938 L 39.144531 14.710938 C 35.300781 14.710938 32.175781 17.835938 32.175781 21.675781 L 32.175781 85.757812 C 32.175781 89.597656 35.300781 92.722656 39.144531 92.722656 L 69.792969 92.722656 C 73.632812 92.722656 76.757812 89.597656 76.757812 85.757812 L 76.757812 62.074219 L 83.273438 62.074219 C 85.824219 62.074219 87.902344 60 87.902344 57.445312 C 87.902344 56.585938 87.664062 55.746094 87.214844 55.015625 " fill-opacity="1" fill-rule="nonzero"/></g><path fill="#ff5f00" d="M 73.972656 42.570312 C 73.199219 42.570312 72.578125 43.195312 72.578125 43.964844 L 72.578125 49.539062 C 72.578125 50.308594 73.199219 50.929688 73.972656 50.929688 C 74.742188 50.929688 75.363281 50.308594 75.363281 49.539062 L 75.363281 43.964844 C 75.363281 43.195312 74.742188 42.570312 73.972656 42.570312 " fill-opacity="1" fill-rule="nonzero"/><path fill="#ff5f00" d="M 73.972656 53.714844 C 73.199219 53.714844 72.578125 54.339844 72.578125 55.109375 C 72.578125 55.878906 73.199219 56.503906 73.972656 56.503906 C 74.742188 56.503906 75.363281 55.878906 75.363281 55.109375 C 75.363281 54.339844 74.742188 53.714844 73.972656 53.714844 " fill-opacity="1" fill-rule="nonzero"/><g clip-path="url(#1587028a70)"><path fill="#ff5f00" d="M 53.71875 6.019531 C 27.417969 6.019531 6.019531 27.417969 6.019531 53.71875 C 6.019531 80.019531 27.417969 101.417969 53.71875 101.417969 C 80.023438 101.417969 101.417969 80.019531 101.417969 53.71875 C 101.417969 27.417969 80.023438 6.019531 53.71875 6.019531 Z M 53.71875 107.4375 C 46.46875 107.4375 39.433594 106.015625 32.808594 103.214844 C 26.410156 100.511719 20.667969 96.636719 15.734375 91.703125 C 10.800781 86.773438 6.929688 81.027344 4.222656 74.628906 C 1.421875 68.003906 0 60.96875 0 53.71875 C 0 46.46875 1.421875 39.433594 4.222656 32.808594 C 6.929688 26.410156 10.800781 20.664062 15.734375 15.734375 C 20.667969 10.800781 26.410156 6.925781 32.808594 4.222656 C 39.433594 1.417969 46.46875 0 53.71875 0 C 60.972656 0 68.007812 1.417969 74.632812 4.222656 C 81.027344 6.925781 86.773438 10.800781 91.707031 15.734375 C 96.636719 20.664062 100.511719 26.410156 103.21875 32.808594 C 106.019531 39.433594 107.441406 46.46875 107.441406 53.71875 C 107.441406 60.96875 106.019531 68.003906 103.21875 74.628906 C 100.511719 81.027344 96.636719 86.773438 91.707031 91.703125 C 86.773438 96.636719 81.027344 100.511719 74.632812 103.214844 C 68.007812 106.015625 60.972656 107.4375 53.71875 107.4375 " fill-opacity="1" fill-rule="nonzero"/></g><path fill="#ff5f00" d="M 80.027344 97.320312 L 21.910156 14.132812 L 26.84375 10.683594 L 84.960938 93.871094 L 80.027344 97.320312 " fill-opacity="1" fill-rule="nonzero"/></svg>