<svg xmlns="http://www.w3.org/2000/svg" xmlns:xlink="http://www.w3.org/1999/xlink" width="150" zoomAndPan="magnify" viewBox="0 0 112.5 112.499997" height="150" preserveAspectRatio="xMidYMid meet" version="1.0"><defs><clipPath id="70352b2fb8"><path d="M 16.371094 30.0625 L 95.519531 30.0625 L 95.519531 81.585938 L 16.371094 81.585938 Z M 16.371094 30.0625 " clip-rule="nonzero"/></clipPath><clipPath id="9b824ae8a5"><path d="M 0 0 L 111.253906 0 L 111.253906 111.253906 L 0 111.253906 Z M 0 0 " clip-rule="nonzero"/></clipPath></defs><path fill="#ff5f00" d="M 53.664062 60.195312 L 52.148438 60.195312 C 51.714844 60.195312 51.316406 60.015625 51.03125 59.726562 L 50.984375 59.683594 C 50.726562 59.402344 50.5625 59.027344 50.5625 58.609375 C 50.5625 58.039062 50.101562 57.570312 49.523438 57.570312 C 48.949219 57.570312 48.484375 58.035156 48.484375 58.609375 C 48.484375 59.582031 48.871094 60.46875 49.496094 61.128906 L 49.5625 61.199219 C 50.164062 61.800781 50.972656 62.191406 51.867188 62.257812 L 51.867188 63.433594 C 51.867188 64.007812 52.332031 64.472656 52.90625 64.472656 C 53.480469 64.472656 53.945312 64.007812 53.945312 63.433594 L 53.945312 62.257812 C 54.839844 62.191406 55.652344 61.800781 56.25 61.199219 L 56.25 61.195312 C 56.914062 60.53125 57.324219 59.617188 57.324219 58.609375 C 57.324219 57.605469 56.914062 56.6875 56.25 56.027344 L 56.246094 56.023438 C 55.582031 55.359375 54.667969 54.945312 53.664062 54.945312 L 52.148438 54.945312 C 51.714844 54.945312 51.316406 54.769531 51.03125 54.480469 L 50.984375 54.4375 C 50.726562 54.15625 50.5625 53.777344 50.5625 53.363281 C 50.5625 52.925781 50.742188 52.53125 51.027344 52.246094 L 51.03125 52.246094 C 51.316406 51.957031 51.714844 51.777344 52.148438 51.777344 L 53.664062 51.777344 C 54.101562 51.777344 54.496094 51.957031 54.78125 52.242188 C 55.066406 52.53125 55.246094 52.925781 55.246094 53.363281 C 55.246094 53.933594 55.710938 54.402344 56.285156 54.402344 C 56.863281 54.402344 57.324219 53.9375 57.324219 53.363281 C 57.324219 52.355469 56.914062 51.441406 56.25 50.777344 L 56.246094 50.773438 C 55.648438 50.171875 54.839844 49.785156 53.945312 49.710938 L 53.945312 48.539062 C 53.945312 47.964844 53.480469 47.5 52.90625 47.5 C 52.332031 47.5 51.867188 47.964844 51.867188 48.539062 L 51.867188 49.710938 C 50.972656 49.78125 50.164062 50.171875 49.5625 50.777344 C 48.898438 51.441406 48.484375 52.355469 48.484375 53.359375 C 48.484375 54.332031 48.871094 55.21875 49.496094 55.878906 L 49.5625 55.949219 C 50.226562 56.613281 51.144531 57.023438 52.152344 57.023438 L 53.664062 57.023438 C 54.101562 57.023438 54.496094 57.203125 54.785156 57.488281 C 55.070312 57.777344 55.25 58.171875 55.25 58.609375 C 55.25 59.046875 55.070312 59.441406 54.78125 59.726562 C 54.492188 60.015625 54.097656 60.195312 53.664062 60.195312 Z M 53.664062 60.195312 " fill-opacity="1" fill-rule="nonzero"/><path fill="#ff5f00" d="M 52.90625 69.164062 C 56.546875 69.164062 59.839844 67.6875 62.226562 65.304688 C 64.609375 62.921875 66.085938 59.625 66.085938 55.984375 C 66.085938 52.347656 64.609375 49.050781 62.226562 46.667969 C 59.839844 44.28125 56.546875 42.808594 52.90625 42.808594 C 49.265625 42.808594 45.972656 44.285156 43.589844 46.667969 C 41.203125 49.054688 39.726562 52.347656 39.726562 55.984375 C 39.726562 59.625 41.203125 62.921875 43.589844 65.304688 C 45.972656 67.691406 49.265625 69.164062 52.90625 69.164062 Z M 45.253906 48.332031 C 47.210938 46.375 49.917969 45.164062 52.90625 45.164062 C 55.894531 45.164062 58.601562 46.375 60.558594 48.332031 C 62.519531 50.292969 63.730469 53 63.730469 55.984375 C 63.730469 58.972656 62.515625 61.679688 60.558594 63.640625 C 58.601562 65.597656 55.894531 66.808594 52.90625 66.808594 C 49.917969 66.808594 47.210938 65.597656 45.253906 63.640625 C 43.296875 61.679688 42.085938 58.972656 42.085938 55.984375 C 42.082031 53 43.296875 50.292969 45.253906 48.332031 Z M 45.253906 48.332031 " fill-opacity="1" fill-rule="nonzero"/><g clip-path="url(#70352b2fb8)"><path fill="#ff5f00" d="M 95.09375 65.71875 L 89.433594 38.316406 L 89.433594 38.3125 C 89.433594 38.144531 89.398438 37.984375 89.335938 37.839844 L 87.941406 31.101562 C 87.8125 30.464844 87.191406 30.054688 86.558594 30.1875 L 52.929688 37.132812 L 17.558594 37.132812 C 16.90625 37.132812 16.378906 37.664062 16.378906 38.3125 L 16.378906 73.660156 C 16.378906 74.308594 16.90625 74.835938 17.558594 74.835938 L 22.390625 74.835938 L 23.558594 80.492188 C 23.6875 81.128906 24.308594 81.539062 24.941406 81.410156 L 56.742188 74.835938 L 88.253906 74.835938 C 88.902344 74.835938 89.429688 74.308594 89.429688 73.660156 L 89.429688 68.085938 L 94.175781 67.105469 C 94.8125 66.972656 95.222656 66.355469 95.09375 65.71875 Z M 85.878906 32.722656 L 86.792969 37.132812 L 64.527344 37.132812 Z M 25.621094 78.871094 L 24.789062 74.835938 L 45.144531 74.835938 Z M 87.078125 72.484375 L 18.738281 72.484375 L 18.738281 39.492188 L 87.078125 39.492188 Z M 89.433594 65.6875 L 89.433594 49.917969 L 92.558594 65.039062 Z M 89.433594 65.6875 " fill-opacity="1" fill-rule="nonzero"/></g><path fill="#ff5f00" d="M 23.613281 50.8125 C 24.261719 50.8125 24.789062 50.285156 24.789062 49.636719 L 24.789062 45.222656 L 29.203125 45.222656 C 29.851562 45.222656 30.378906 44.695312 30.378906 44.046875 C 30.378906 43.394531 29.851562 42.867188 29.203125 42.867188 L 23.613281 42.867188 C 22.964844 42.867188 22.433594 43.394531 22.433594 44.046875 L 22.433594 49.636719 C 22.433594 50.285156 22.960938 50.8125 23.613281 50.8125 Z M 23.613281 50.8125 " fill-opacity="1" fill-rule="nonzero"/><path fill="#ff5f00" d="M 29.203125 66.75 L 24.789062 66.75 L 24.789062 62.335938 C 24.789062 61.6875 24.261719 61.160156 23.613281 61.160156 C 22.964844 61.160156 22.433594 61.6875 22.433594 62.335938 L 22.433594 67.925781 C 22.433594 68.578125 22.964844 69.105469 23.613281 69.105469 L 29.203125 69.105469 C 29.851562 69.105469 30.378906 68.578125 30.378906 67.925781 C 30.378906 67.277344 29.851562 66.75 29.203125 66.75 Z M 29.203125 66.75 " fill-opacity="1" fill-rule="nonzero"/><path fill="#ff5f00" d="M 76.609375 45.222656 L 81.023438 45.222656 L 81.023438 49.636719 C 81.023438 50.285156 81.550781 50.8125 82.199219 50.8125 C 82.847656 50.8125 83.375 50.285156 83.375 49.636719 L 83.375 44.046875 C 83.375 43.394531 82.847656 42.867188 82.199219 42.867188 L 76.609375 42.867188 C 75.960938 42.867188 75.429688 43.394531 75.429688 44.046875 C 75.429688 44.695312 75.960938 45.222656 76.609375 45.222656 Z M 76.609375 45.222656 " fill-opacity="1" fill-rule="nonzero"/><path fill="#ff5f00" d="M 76.609375 69.105469 L 82.199219 69.105469 C 82.847656 69.105469 83.375 68.578125 83.375 67.929688 L 83.375 62.339844 C 83.375 61.6875 82.847656 61.160156 82.199219 61.160156 C 81.550781 61.160156 81.023438 61.6875 81.023438 62.339844 L 81.023438 66.75 L 76.609375 66.75 C 75.960938 66.75 75.429688 67.277344 75.429688 67.929688 C 75.429688 68.578125 75.960938 69.105469 76.609375 69.105469 Z M 76.609375 69.105469 " fill-opacity="1" fill-rule="nonzero"/><g clip-path="url(#9b824ae8a5)"><path fill="#ff5f00" d="M 55.804688 6.253906 C 28.480469 6.253906 6.253906 28.480469 6.253906 55.804688 C 6.253906 83.125 28.480469 105.351562 55.804688 105.351562 C 83.128906 105.351562 105.355469 83.125 105.355469 55.804688 C 105.355469 28.480469 83.128906 6.253906 55.804688 6.253906 Z M 55.804688 111.605469 C 48.273438 111.605469 40.964844 110.128906 34.082031 107.21875 C 27.4375 104.410156 21.46875 100.386719 16.34375 95.261719 C 11.21875 90.136719 7.199219 84.171875 4.386719 77.523438 C 1.476562 70.644531 0 63.335938 0 55.804688 C 0 48.269531 1.476562 40.960938 4.386719 34.078125 C 7.199219 27.433594 11.21875 21.46875 16.34375 16.34375 C 21.46875 11.21875 27.4375 7.195312 34.082031 4.386719 C 40.964844 1.476562 48.273438 0 55.804688 0 C 63.335938 0 70.644531 1.476562 77.527344 4.386719 C 84.171875 7.195312 90.140625 11.21875 95.261719 16.34375 C 100.386719 21.46875 104.410156 27.433594 107.222656 34.078125 C 110.132812 40.960938 111.609375 48.269531 111.609375 55.804688 C 111.609375 63.335938 110.132812 70.644531 107.222656 77.523438 C 104.410156 84.171875 100.386719 90.136719 95.261719 95.261719 C 90.140625 100.386719 84.171875 104.410156 77.527344 107.21875 C 70.644531 110.128906 63.335938 111.605469 55.804688 111.605469 " fill-opacity="1" fill-rule="nonzero"/></g><path fill="#ff5f00" d="M 83.132812 101.097656 L 22.757812 14.683594 L 27.886719 11.101562 L 88.257812 97.515625 L 83.132812 101.097656 " fill-opacity="1" fill-rule="nonzero"/></svg>