<?xml version="1.0" standalone="no"?>
<!DOCTYPE svg PUBLIC "-//W3C//DTD SVG 20010904//EN"
 "http://www.w3.org/TR/2001/REC-SVG-20010904/DTD/svg10.dtd">
<svg class="img-fluid" id="outputsvg" xmlns="http://www.w3.org/2000/svg" width="800" height="336" viewBox="0 0 8000 3360"><g id="lYgnIAyb6xnQt1ANyzoV1b" fill="rgb(255,104,30)"><g><path d="M 6246 2939 c -89 -21 -218 -113 -262 -188 -15 -25 -20 -26 -97 -27 -110 -1 -185 -25 -246 -80 -47 -42 -47 -42 -84 -14 -20 15 -65 40 -99 56 -58 26 -73 29 -173 29 -128 0 -174 -16 -249 -85 -46 -42 -46 -42 -83 -10 -20 18 -67 47 -103 64 -55 26 -80 31 -161 34 -161 7 -265 -28 -368 -123 -58 -54 -58 -54 -112 1 -31 32 -81 68 -119 87 -62 31 -70 32 -185 32 -114 0 -123 -1 -173 -29 -96 -54 -161 -154 -169 -261 -3 -33 9 -185 26 -337 31 -291 31 -327 -8 -362 -28 -25 -90 -31 -134 -13 -41 18 -91 86 -108 149 -5 20 -30 191 -54 380 -25 189 -47 364 -51 391 -3 26 -10 47 -15 47 -5 0 -9 7 -9 15 0 13 -27 15 -185 15 -158 0 -185 -2 -185 -15 0 -8 -5 -15 -11 -15 -12 0 -5 -144 9 -178 3 -9 -21 5 -54 30 -85 65 -174 112 -284 149 -81 27 -113 33 -222 37 -80 3 -151 0 -189 -7 -265 -53 -450 -300 -449 -603 0 -104 23 -200 71 -298 35 -70 59 -102 138 -180 110 -108 193 -159 317 -190 144 -37 342 -22 454 35 150 76 219 213 190 375 -37 206 -221 353 -531 425 -76 18 -76 18 -98 -4 -13 -13 -27 -49 -38 -96 -19 -87 -14 -99 50 -116 134 -36 230 -134 244 -248 8 -68 -14 -107 -69 -121 -114 -31 -229 70 -282 249 -9 30 -16 68 -16 84 0 15 -7 35 -15 43 -8 9 -15 22 -15 29 0 7 7 20 15 29 8 8 15 28 15 45 0 91 78 203 165 237 59 22 187 15 269 -14 119 -43 251 -145 338 -261 44 -58 44 -58 78 -352 23 -205 37 -296 47 -302 7 -4 13 -14 13 -21 0 -17 97 -34 190 -35 75 0 140 24 165 62 16 26 16 26 61 -3 72 -45 157 -63 272 -58 79 4 110 10 158 32 73 33 149 105 180 171 26 54 32 120 12 128 -10 4 -10 6 0 6 18 1 15 42 -17 266 -52 354 -51 395 6 395 36 0 85 -30 114 -70 22 -29 23 -41 25 -178 1 -115 6 -164 22 -225 63 -231 238 -421 455 -494 76 -26 93 -27 253 -28 170 0 170 0 205 -295 39 -336 39 -336 133 -384 47 -25 73 -31 146 -34 94 -5 160 9 160 34 0 8 7 14 15 14 12 0 15 7 10 33 -20 116 -183 1403 -191 1512 -5 77 -4 93 10 104 26 22 67 4 121 -52 51 -52 51 -52 94 -432 46 -410 45 -408 111 -452 60 -41 174 -61 275 -48 45 5 58 11 62 26 3 10 9 19 14 19 5 0 9 11 9 24 0 28 -96 776 -106 822 -8 42 11 53 24 14 32 -91 163 -254 356 -442 123 -121 129 -128 113 -146 -35 -39 -61 -115 -60 -182 0 -108 59 -196 165 -250 50 -25 73 -30 130 -30 39 0 85 7 106 15 48 21 129 101 141 140 14 46 11 162 -5 207 -8 22 -14 42 -14 44 0 2 60 34 133 70 154 77 236 133 300 204 202 225 130 552 -153 693 -102 52 -196 70 -338 65 -101 -3 -125 -7 -174 -30 -71 -33 -155 -110 -179 -163 -24 -56 -23 -166 3 -227 36 -85 155 -167 249 -171 58 -3 71 19 41 71 -69 123 -10 233 115 219 141 -16 160 -196 33 -311 -45 -41 -202 -146 -218 -146 -9 0 -247 255 -302 325 -38 48 -100 179 -100 211 0 12 -6 25 -12 27 -9 4 -10 8 -2 14 6 4 14 25 18 45 15 81 103 158 225 194 55 17 91 44 91 68 0 36 -89 77 -210 96 -76 12 -120 11 -174 -1 z  m -1429 -540 c 46 -22 91 -78 117 -145 19 -50 79 -535 67 -547 -15 -15 -127 -20 -177 -8 -80 19 -137 69 -178 153 -46 94 -65 170 -73 289 -4 74 -2 106 11 145 38 114 134 161 233 113 z  m 1865 -901 c -15 -15 -42 -2 -42 20 0 10 5 23 12 30 10 10 15 7 26 -14 9 -18 11 -29 4 -36 z "></path><path id="p1BYk7azzz" d="M 644 2924 c -98 -35 -175 -145 -194 -279 -12 -87 -13 -245 -1 -245 5 0 6 -19 4 -42 -5 -48 18 -275 45 -446 11 -65 14 -108 8 -102 -5 5 -24 10 -40 10 -59 0 -176 -114 -176 -172 0 -21 122 -274 184 -383 106 -182 187 -276 273 -312 54 -22 141 -14 191 19 98 65 97 112 -8 793 -61 398 -80 535 -80 592 0 24 -4 43 -9 43 -14 0 -22 30 -13 47 12 21 51 -28 142 -180 169 -279 308 -585 378 -827 39 -131 79 -301 88 -369 4 -28 10 -51 14 -51 21 0 -27 -131 -54 -147 -29 -17 -66 -86 -66 -122 0 -48 42 -132 86 -170 64 -57 112 -75 195 -76 67 0 80 3 117 29 47 32 93 99 115 166 25 74 16 324 -17 476 -103 478 -325 986 -606 1386 -93 134 -268 306 -349 346 -73 36 -154 42 -227 16 z "></path><path id="pMsIMZjrM" d="M6141.844421175836 949.4865925379626 C 6141.844421175836 1079.8014714190481 6036.203339076717 1185.4425535181672 5905.8884601956315 1185.4425535181672 5775.573581314546 1185.4425535181672 5669.932499215427 1079.8014714190481 5669.932499215427 949.4865925379626 5669.932499215427 819.17171365687705 5775.573581314546 713.53063155775794 5905.8884601956315 713.53063155775794 6036.203339076717 713.53063155775794 6141.844421175836 819.17171365687705 6141.844421175836 949.4865925379626 Z M5843.0 1179.0 "></path></g></g></svg>